# xmcd CD database file
#
# Track frame offsets:
#	150
#	11627
#	32472
#	50040
#	71275
#	89707
#	111590
#	121827
#	128462
#	142812
#	164722
#	170462
#	182632
#	194722
#	207272
#	218577
#	237852
#	257390
#
# Disc length: 3764 seconds
#
# Revision: 0
# Processed by: cddbd v1.5.1PL0 Copyright (c) Steve Scherf et al.
# Submitted via: CDex 1.51
#
DISCID=fe0eb212
DTITLE=Various Artist - 低音王II The King Of Bass II
DYEAR=2000
DGENRE=Jazz
TTITLE0=Richard Davis/行けモーゼ
TTITLE1=Richard Davis/ア・フラワー・イズ・ア・ラヴサム・シング
TTITLE2=Serge Koussevitzky/ラルゴ
TTITLE3=Serge Koussevitzky/悲しみの歌
TTITLE4=L’Orchestre de Contrebasses/嘘つきの神様
TTITLE5=L’Orchestre de Contrebasses/アコースティック・トラッシュ
TTITLE6=Francois Rabbath/クレイジー・コース
TTITLE7=Francois Rabbath/インパラス
TTITLE8=Stefano Sciascia/私を泣かせて
TTITLE9=Stefano Sciascia/私を愛しているなら
TTITLE10=Kiyoto Fujiwara/誕生
TTITLE11=Kiyoto Fujiwara/キサス・キサス・キサス
TTITLE12=Kiyoto Fujiwara/フォーク・フォームズNo.1
TTITLE13=Takashi Konno/リディア
TTITLE14=Takashi Konno/ゆりかご
TTITLE15=Takeshi Yamaguchi/いつか王子さまが
TTITLE16=Red Mitchell/枯葉
TTITLE17=Reginald Veal/ダウン・バイ・ザ・リヴァーサイド
EXTD=YEAR: 2000
EXTT0=
EXTT1=
EXTT2=
EXTT3=
EXTT4=
EXTT5=
EXTT6=
EXTT7=
EXTT8=
EXTT9=
EXTT10=
EXTT11=
EXTT12=
EXTT13=
EXTT14=
EXTT15=
EXTT16=
EXTT17=
PLAYORDER=
